# xmcd CD database file
#
# Track frame offsets:
#	150
#	27813
#	59702
#	81992
#	102889
#	129198
#	138313
#	163429
#	200809
#	224716
#
# Disc length: 3438 seconds
#
# Revision: 0
# Processed by: cddbd v1.5.1PL2 Copyright (c) Steve Scherf et al.
# Submitted via: CDex 1.51
#
DISCID=9b0d6c0a
DTITLE=Mitchell-Zurzolo-Moye Quintet - Samsara
DYEAR=2006
DGENRE=Jazz
TTITLE0=Magma (Zurzolo)
TTITLE1=OM (Zurzolo)
TTITLE2=Formiche elefanti e vecchie zanzare (Zurzolo)
TTITLE3=A distant raindrop (Mitchell)
TTITLE4=umba degli scugnizzi (Viviani)
TTITLE5=Up in there (Mitchell)
TTITLE6=Mon ami Don (Zurzolo)
TTITLE7=For Favors (Mitchell)
TTITLE8=Theme for Roscoe (Zurzolo)
TTITLE9=Suite (Zurzolo)
EXTD=YEAR: 2006
EXTT0=
EXTT1=
EXTT2=
EXTT3=
EXTT4=
EXTT5=
EXTT6=
EXTT7=
EXTT8=
EXTT9=
PLAYORDER=
